PathFileType	4	(X/Y/Z)	E:\Qualisys_Data\Carbon_Farble_Plate\Data\Amateur_Runner\S14\T1\S14T1V22_c3d.trc
DataRate	CameraRate	NumFrames	NumMarkers	Units	OrigDataRate	OrigDataStartFrame	OrigNumFrames
200.000000	200.000000	5	39	mm	200.000000	228	304
Frame#	Time	LSHO			RSHO			LICST			RICST			LASIS			LHEEL			RASIS			LTROC			RTROC			SACR			LTH1			LSK4			LTH2			LTH3			RHM5			LSK2			LTH4			RTH1			LTOE			RTH2			RTH3			RTH4			LLEP			RLEP			LSK1			LSK3			RSK1			LHM5			RSK2			LFT1			RSK3			RSK4			LLME			RLME			RTOE			RHEEL			RFT1			RFT2			LFT2			
		X1	Y1	Z1	X2	Y2	Z2	X3	Y3	Z3	X4	Y4	Z4	X5	Y5	Z5	X6	Y6	Z6	X7	Y7	Z7	X8	Y8	Z8	X9	Y9	Z9	X10	Y10	Z10	X11	Y11	Z11	X12	Y12	Z12	X13	Y13	Z13	X14	Y14	Z14	X15	Y15	Z15	X16	Y16	Z16	X17	Y17	Z17	X18	Y18	Z18	X19	Y19	Z19	X20	Y20	Z20	X21	Y21	Z21	X22	Y22	Z22	X23	Y23	Z23	X24	Y24	Z24	X25	Y25	Z25	X26	Y26	Z26	X27	Y27	Z27	X28	Y28	Z28	X29	Y29	Z29	X30	Y30	Z30	X31	Y31	Z31	X32	Y32	Z32	X33	Y33	Z33	X34	Y34	Z34	X35	Y35	Z35	X36	Y36	Z36	X37	Y37	Z37	X38	Y38	Z38	X39	Y39	Z39	

229	1.14	1797.735473632812	1416.683349609375	-545.2327270507812	1898.197143554688	1416.947387695312	-266.9459533691406	1824.51513671875	969.5994262695312	-511.3116760253906	1864.278564453125	970.4595336914062	-239.5544738769531	1869.014404296875	921.7706909179688	-484.9732666015625	1992.749877929688	61.41898345947266	-390.6240234375	1885.720581054688	925.4951171875	-256.2190551757812	1735.33642578125	843.2129516601562	-527.9021606445312	1732.121948242188	886.7408447265625	-197.2403717041016	1705.4189453125	969.737060546875	-370.2302551269531	1901.239990234375	640.4671630859375	-533.4296875	1945.470581054688	269.5613098144531	-473.2400512695312	1836.384643554688	613.7776489257812	-500.2671203613281	1952.57666015625	559.3866577148438	-504.1333923339844	1210.177612304688	321.1967468261719	-237.1361999511719	1925.32177734375	365.6189880371094	-489.4603881835938	1881.759643554688	529.6234741210938	-480.5782470703125	1793.378295898438	624.1236572265625	-201.4739227294922	2234.0556640625	140.9221649169922	-437.4320373535156	1720.803100585938	650.0769653320312	-188.6336059570312	1763.836181640625	528.6787109375	-216.6392211914062	1684.783325195312	555.6363525390625	-203.522216796875	1955.53125	486.4927673339844	-492.5838623046875	1673.985473632812	486.6900329589844	-208.8773040771484	2005.75439453125	382.34716796875	-492.8386535644531	2025.007202148438	283.12548828125	-479.2912902832031	1567.566772460938	433.5176391601562	-211.7627105712891	2175.219482421875	92.12540435791016	-488.5844116210938	1550.658081054688	517.2532958984375	-220.9380493164062	2014.394775390625	45.30109786987305	-362.4183349609375	1466.3466796875	418.4935302734375	-234.264892578125	1458.656982421875	497.2672424316406	-243.4720458984375	2033.4599609375	100.5510559082031	-453.9959716796875	1295.96435546875	439.4095153808594	-274.4277954101562	1220.463256835938	237.6809997558594	-279.2187805175781	1286.322021484375	478.6456604003906	-345.36083984375	1262.768432617188	464.0267639160156	-374.8171081542969	1261.139526367188	489.2042846679688	-319.7001953125	2003.207763671875	34.25140762329102	-415.9825439453125
230	1.145	1818.776977539062	1410.896484375	-546.7759399414062	1916.839233398438	1412.120971679688	-267.4010925292969	1844.847778320312	965.0990600585938	-511.5085754394531	1884.707275390625	965.6036376953124	-240.1187896728516	1890.049072265625	918.6411743164062	-487.4699096679688	1999.621826171875	62.11606979370117	-390.3951721191406	1906.220703125	920.7601318359376	-257.0517272949219	1754.132202148438	838.4091186523438	-526.5252685546875	1753.609741210938	881.3129272460938	-196.7464447021484	1725.477783203125	964.603271484375	-369.3033142089844	1923.756713867188	637.6741333007812	-531.6021118164062	1960.267456054688	265.2574157714844	-472.9249572753906	1857.760131835938	610.2849731445312	-502.0013732910156	1974.664794921875	556.864501953125	-502.2350769042969	1235.871215820312	325.754638671875	-237.4933319091797	1943.435913085938	361.9745178222656	-490.3135375976562	1903.963012695312	525.6373901367188	-481.6766967773438	1818.091796875	618.9807739257812	-200.6571807861328	2246.06640625	125.1889419555664	-432.9138793945312	1744.96533203125	643.1498413085938	-187.7942810058594	1789.697387695312	522.6947631835938	-216.0237579345703	1710.664306640625	548.359619140625	-202.229248046875	1977.489501953125	483.2944946289062	-492.3889770507812	1700.857299804688	479.4711608886719	-207.0511322021484	2024.299560546875	376.7547302246094	-492.0317993164062	2040.273193359375	276.776611328125	-477.5938110351562	1594.301635742188	428.6729431152344	-210.9604949951172	2184.220947265625	80.10845947265625	-484.0895080566406	1579.607666015625	512.8612670898438	-220.623779296875	2019.193481445312	43.40697479248047	-362.2596435546875	1492.675048828125	415.7633056640625	-234.2456665039062	1487.1943359375	495.4679870605469	-243.2476043701172	2043.134887695312	95.27559661865234	-452.5571899414062	1323.674072265625	441.5601501464844	-275.1618957519531	1244.274169921875	241.2236785888672	-279.8152770996094	1314.162353515625	481.5137939453125	-344.8982543945312	1291.254516601562	465.5726013183594	-375.5675354003906	1289.246826171875	492.3512268066406	-321.8900146484375	2008.602294921875	34.36594009399414	-414.9528198242188
231	1.15	1839.9482421875	1404.53759765625	-547.8272094726562	1935.733154296875	1406.86328125	-267.5935363769531	1862.38134765625	960.8648681640624	-511.9519958496094	1904.869750976562	960.4397583007812	-240.3129272460938	1909.2294921875	914.6995849609376	-488.5038146972656	2005.988037109375	61.28499221801758	-390.3729248046875	1926.392211914062	915.7357788085938	-258.3405151367188	1773.077026367188	832.8417358398438	-524.988037109375	1774.914794921875	874.9827880859375	-196.0031433105469	1745.206420898438	959.3427124023438	-368.5520324707031	1945.625732421875	635.0361328125	-529.6626586914062	1975.4560546875	261.4659118652344	-473.399658203125	1878.828125	605.1159057617188	-502.7916259765625	1996.617553710938	554.3883666992188	-500.5634460449219	1262.134887695312	329.5990295410156	-238.2136077880859	1961.198120117188	358.59326171875	-491.2275085449219	1925.736694335938	521.358642578125	-483.0542602539062	1842.792724609375	613.567626953125	-200.1999359130859	2256.157470703125	108.3706588745117	-428.0606994628906	1769.123657226562	636.6708374023438	-186.7679290771484	1816.501953125	516.5798950195312	-214.7835235595703	1736.208251953125	540.9063110351562	-200.8660278320312	1999.29931640625	479.9713439941406	-491.9342651367188	1728.4619140625	472.2752990722656	-205.2812805175781	2041.969116210938	370.9367980957031	-490.4915771484375	2055.515625	271.01806640625	-476.1305236816406	1621.708251953125	424.306884765625	-210.0592193603516	2192.670654296875	68.15502166748047	-481.04736328125	1608.223999023438	508.1845703125	-220.2538452148438	2024.0283203125	41.68939208984375	-362.1165771484375	1520.34619140625	413.6341552734375	-234.0943450927734	1516.369995117188	492.9020690917969	-243.16650390625	2052.636474609375	90.00852966308594	-451.2074890136719	1352.059204101562	443.5121459960938	-276.4627380371094	1269.590576171875	244.5535430908203	-279.9142761230469	1343.47314453125	483.1557922363281	-346.4728698730469	1320.57763671875	467.7737731933594	-377.2532043457031	1318.928955078125	495.0828857421875	-323.6574401855469	2011.340087890625	32.44824600219727	-415.0960388183594
232	1.155	1860.976440429688	1398.4189453125	-549.3019409179688	1954.545166015625	1401.836059570312	-267.4928283691406	1881.922973632812	956.506591796875	-512.7570190429688	1925.282470703125	954.9295654296876	-241.1558990478516	1928.755859375	910.532470703125	-489.9684143066406	2011.77099609375	61.03867721557617	-390.1061706542969	1946.829711914062	910.4571533203124	-259.3194274902344	1791.853759765625	827.6390991210938	-523.7200927734375	1796.205810546875	868.7138061523438	-195.4326019287109	1764.931884765625	954.0103759765624	-367.9157104492188	1967.499389648438	631.9600219726562	-527.6851196289062	1990.453857421875	257.9449157714844	-472.8901977539062	1900.033569335938	600.5098876953125	-504.0480041503906	2017.988403320312	550.3783569335938	-499.703857421875	1289.611328125	332.5201721191406	-239.0006561279297	1979.017333984375	354.9441833496094	-491.6139526367188	1947.489135742188	517.2853393554688	-483.4330444335938	1867.460327148438	607.9656982421875	-199.8785552978516	2266.037841796875	90.44013214111328	-423.650390625	1793.635864257812	630.0762329101562	-185.7282409667969	1843.2021484375	510.8506774902344	-213.876220703125	1763.186279296875	533.492431640625	-199.4086456298828	2020.667358398438	475.9049682617188	-491.7439880371094	1755.875	465.1685791015625	-203.7921295166016	2060.330810546875	365.8463134765625	-489.532470703125	2070.50146484375	265.0615539550781	-473.885986328125	1649.695434570312	418.8908386230469	-209.1952667236328	2200.313232421875	55.21920013427734	-477.2642211914062	1638.513793945312	503.3366088867188	-219.00048828125	2027.89892578125	39.95822906494141	-361.91845703125	1548.262939453125	410.31103515625	-234.1308441162109	1545.565673828125	489.7891845703125	-242.9910278320312	2061.535888671875	85.41735076904297	-450.4304504394531	1381.114013671875	444.7098083496094	-277.0539855957031	1295.271728515625	247.1205902099609	-280.1766967773438	1373.215454101562	484.3821716308594	-347.557373046875	1350.138671875	469.1146850585938	-378.3097839355469	1348.833862304688	496.5176696777344	-324.7458801269531	2015.440063476562	32.29666137695312	-414.9398803710938
233	1.16	1882.24267578125	1391.720703125	-550.7919921875	1972.882568359375	1396.331909179688	-267.6481018066406	1900.755249023438	951.4783325195312	-513.4168701171875	1945.552001953125	949.4984741210938	-241.3833618164062	1947.257446289062	906.1564331054688	-491.1483459472656	2017.114013671875	61.51475524902344	-390.3319396972656	1967.044067382812	905.0502319335938	-259.8818664550781	1810.911865234375	821.980224609375	-522.9459228515625	1817.327758789062	862.2138061523438	-195.1494750976562	1784.382568359375	948.8822021484376	-367.1219787597656	1988.15283203125	628.4378662109375	-527.1087036132812	2005.702514648438	255.2479248046875	-472.732177734375	1920.422607421875	596.4503784179688	-504.3647766113281	2038.729248046875	546.362548828125	-499.8080749511719	1317.134887695312	334.6305847167969	-239.4088134765625	1997.34423828125	352.756591796875	-492.1586608886719	1968.225952148438	513.0756225585938	-484.4591979980469	1892.635864257812	602.8450317382812	-198.5290679931641	2275.40478515625	74.61083221435547	-417.3206481933594	1818.254272460938	622.798828125	-185.3792877197266	1870.260131835938	504.6795349121094	-212.8688812255859	1789.262817382812	525.4844970703125	-198.1394348144531	2041.296997070312	471.5649719238281	-491.842041015625	1783.744262695312	457.982421875	-202.126708984375	2078.874755859375	361.1628723144531	-488.6733703613281	2085.8310546875	260.1845397949219	-472.4265747070312	1677.897338867188	413.9818420410156	-208.634521484375	2208.028564453125	48.86083602905273	-476.9692077636719	1668.03564453125	498.4593811035156	-217.9875946044922	2031.3828125	39.68075561523438	-361.9775390625	1576.565307617188	407.2764587402344	-233.5369262695312	1575.4873046875	486.6717834472656	-242.3295440673828	2069.15478515625	82.44815063476562	-450.2291564941406	1410.5185546875	445.3878784179688	-277.5249633789062	1322.066772460938	249.2765502929688	-280.3666687011719	1403.487182617188	485.4635925292969	-348.4180908203125	1380.036010742188	470.6279602050781	-378.9959106445312	1378.957641601562	497.5062255859375	-325.1539001464844	2018.581298828125	32.69912338256836	-415.3102416992188
